<svg width="24" height="24" viewBox="0 0 24 24" fill="none" xmlns="http://www.w3.org/2000/svg">
<path d="M12.2467 7.44672C11.7072 7.44735 11.1721 7.54443 10.6667 7.73338L16.5334 13.6C16.7249 13.0884 16.822 12.5463 16.8201 12C16.8148 10.7906 16.3306 9.63248 15.4735 8.77914C14.6164 7.92579 13.4562 7.4467 12.2467 7.44672Z" fill="#B3B3B3"/>
<path d="M22.8598 11.6867C20.6132 7.53335 16.6732 5.02002 12.3132 5.02002C11.1261 5.02281 9.94693 5.21408 8.81982 5.58669L9.89316 6.66669C10.6837 6.46237 11.4966 6.35712 12.3132 6.35335C16.0665 6.35335 19.4798 8.44669 21.5132 11.9734C20.7673 13.2818 19.7785 14.4357 18.5998 15.3734L19.5465 16.32C20.9105 15.2196 22.0434 13.8601 22.8798 12.32L23.0532 12L22.8598 11.6867Z" fill="#B3B3B3"/>
<path d="M3.24667 3.85332L6.22 6.82665C4.34062 8.03673 2.8046 9.7105 1.76 11.6867L1.58667 12L1.76 12.32C4.00667 16.4733 7.94667 18.9867 12.3067 18.9867C14.0084 18.9863 15.6881 18.6011 17.22 17.86L20.5533 21.1933L21.72 20.1933L4.38667 2.85999L3.24667 3.85332ZM8.78 9.38665C8.15629 10.2663 7.86395 11.3382 7.95475 12.4126C8.04554 13.4871 8.51361 14.4948 9.27607 15.2572C10.0385 16.0197 11.0462 16.4878 12.1207 16.5786C13.1951 16.6694 14.2671 16.377 15.1467 15.7533L16.2133 16.82C14.9785 17.3478 13.6496 17.62 12.3067 17.62C8.55333 17.62 5.14 15.5267 3.10667 12C4.08247 10.2721 5.48782 8.82545 7.18667 7.79999L8.78 9.38665Z" fill="#B3B3B3"/>
</svg>
