<svg width="24" height="24" viewBox="0 0 24 24" fill="none" xmlns="http://www.w3.org/2000/svg">
<path d="M22.4134 11.6867C20.1667 7.53335 16.2267 5.02002 11.8667 5.02002C7.50673 5.02002 3.56006 7.53335 1.3334 11.6867L1.14673 12L1.32006 12.32C3.56673 16.4734 7.50673 18.9867 11.8667 18.9867C16.2267 18.9867 20.1734 16.5067 22.4134 12.32L22.5867 12L22.4134 11.6867ZM11.8667 17.62C8.1134 17.62 4.66673 15.5267 2.66673 12C4.66673 8.47335 8.1134 6.38002 11.8667 6.38002C15.6201 6.38002 19.0267 8.48002 21.0601 12C19.0267 15.5267 15.6134 17.62 11.8667 17.62Z" fill="#B3B3B3"/>
<path d="M12.0599 16.5934C14.5857 16.5934 16.6332 14.5458 16.6332 12.02C16.6332 9.49427 14.5857 7.44672 12.0599 7.44672C9.53412 7.44672 7.48657 9.49427 7.48657 12.02C7.48657 14.5458 9.53412 16.5934 12.0599 16.5934Z" fill="#B3B3B3"/>
</svg>
